<svg width="4096" height="4096" viewBox="0 0 4096 4096" fill="none" xmlns="http://www.w3.org/2000/svg">
<g clip-path="url(#clip0_7_15)">
<rect width="4096" height="4096"/>
<path d="M4160.72 13.0112C4136.96 27.1599 4077.75 54.1758 4030.98 49.0502C3972.52 42.6432 3996.54 92.2967 3926.07 121.128C3855.59 149.959 3798.73 233.249 3663.39 302.123C3528.04 370.997 3464.77 446.278 3419.93 464.698C3375.08 483.118 3207.7 583.226 3027.51 639.286C2883.35 684.135 2723.45 616.328 2661.51 576.819L2361.99 362.989C2275.77 319.208 2098.67 220.435 2080.09 175.587C2056.87 119.526 1891.89 39.4397 1871.87 33.0328C1851.85 26.6259 1685.27 53.0544 1651.63 33.0328C1617.99 13.0112 1552.32 -50.257 1550.72 -87.0967M634.987 -86.202L629.867 45.873L658.023 206.104L680.547 319.749L742.489 473.837L753.751 533.219V650.449L769.62 718.534L763.477 788.155L785.49 942.242V1044.11L814.157 1155.2L831.05 1263.22L838.217 1401.43L805.454 1518.66L797.776 1684.01L805.454 1781.79L848.455 1846.8L923.195 1940.48L948.791 2016.76L952.374 2220.5L969.779 2272.72L1007.15 2305.48L1044.01 2324.42H1071.14L1115.16 2283.98L1145.37 2228.18L1203.21 2147.3L1291.26 2082.28L1326.07 2032.63L1331.19 1978.88V1886.22L1315.83 1759.78L1310.71 1721.89L1320.44 1648.69L1337.33 1599.03L1342.45 1395.8L1358.32 1246.83L1362.93 1091.21L1381.87 1025.17L1405.93 969.886L1417.19 937.123L1455.59 892.074L1499.1 840.883L1526.74 795.322L1594.32 714.951L1716.66 629.972L1731.51 595.162L1716.66 549.089L1551.83 429.812L1334.77 167.71L1284.09 97.5768L1250.31 31.5392L1219.08 -27.3314L1189.9 -85.6901M771.156 -85.6901L778.323 -44.7366L764.501 32.5631C759.894 63.2782 753.444 143.24 764.501 217.366C771.327 245.18 790.302 307.668 811.597 335.107C832.893 362.546 836.511 393.636 835.657 405.752C834.54 421.621 854.598 459.503 854.598 478.956C857.84 488.853 864.427 515.302 864.837 541.922L867.908 627.412L897.599 765.63L901.695 788.667V905.896L887.873 968.862V1005.72L917.052 1117.32V1184.89C917.735 1193.77 925.345 1211.82 950.326 1213.05C954.422 1216.12 964.046 1225.95 969.779 1240.69L987.184 1276.53L994.863 1303.15L987.184 1368.16L983.089 1436.24C983.26 1450.24 987.594 1482.11 1003.57 1497.67C1019.54 1513.24 1058.68 1482.32 1076.26 1464.91C1091.62 1450.07 1125.09 1421.71 1136.15 1427.03C1147.21 1432.35 1170.11 1393.75 1180.18 1373.79C1188.2 1347.51 1204.34 1291.68 1204.75 1278.57C1205.16 1265.47 1203.21 1210.32 1202.19 1184.38C1192.63 1167.32 1168.3 1128.79 1147.41 1111.18C1121.31 1089.16 1101.85 1092.23 1090.59 1069.71C1081.58 1051.69 1084.11 1004.18 1086.5 982.684C1089.91 957.941 1097.14 903.03 1098.78 881.324C1100.42 859.619 1091.27 795.151 1086.5 765.63L1061.41 670.926C1057.32 635.262 1056.6 559.532 1086.5 541.922C1116.39 524.312 1200.99 564.617 1239.56 586.971C1263.62 589.531 1317.98 594.445 1342.97 593.626C1374.19 592.602 1436.65 580.828 1441.77 550.113C1446.88 519.398 1446.88 493.802 1428.97 455.92C1414.63 425.614 1389.21 397.902 1378.29 387.835L1314.3 285.451L1236.49 182.043L1122.84 -2.24738L1091.61 -50.8797C1088.2 -57.1933 1081.17 -72.9945 1080.35 -85.6901M564.342 -85.6901L573.045 16.1817L588.402 110.375L603.248 173.341L617.582 273.677L636.01 369.917L673.892 458.479L688.738 559.839L696.928 693.45L713.31 820.918L721.5 965.279L737.37 1089.68L764.501 1208.44C773.374 1249.73 786.718 1347.37 769.108 1407.58C747.096 1482.83 727.643 1542.72 719.453 1645.11C712.9 1727.01 726.961 1808.58 734.81 1839.12C746.584 1861.65 781.292 1914.48 825.931 1945.6C881.73 1984.51 872.515 2117.1 870.468 2130.41C868.42 2143.72 848.455 2234.32 864.837 2291.15C881.218 2347.97 910.397 2430.39 937.017 2460.59C963.636 2490.8 1084.45 2625.43 1136.66 2633.11C1188.88 2640.79 1223.69 2619.29 1217.03 2551.2C1187.51 2451.89 1190.01 2239.85 1436.13 2186.2C1496.37 2159.58 1606.29 2075.12 1564.11 1950.21C1521.93 1825.3 1510.7 1711.83 1510.36 1670.7C1507.8 1632.82 1488.25 1530.23 1430.5 1422.93C1427.94 1391.2 1427.43 1320.45 1445.86 1291.37C1448.93 1161.86 1528.59 862.383 1822.63 700.617C1936.79 667.342 2195 608.062 2314.58 637.139C2320.72 640.893 2335.77 647.582 2346.83 644.306C2357.89 641.029 2324.14 610.86 2305.88 596.185L2277.21 555.232C2231.65 524.517 2122.61 462.575 2050.94 460.527C1961.36 457.967 1937.81 473.325 1896.35 473.837C1854.88 474.349 1760.18 465.646 1643.46 389.882C1550.09 329.271 1449.27 202.52 1410.54 146.721C1362.76 90.4099 1284.1 -42.689 1292.8 -85.6901M1378.29 -85.6901C1433.23 74.5404 1610.9 391.009 1882.01 375.037C1909.31 353.024 1988.49 322.207 2086.78 375.037C2209.64 441.074 2308.44 424.693 2431.3 543.458C2554.16 662.223 2700.57 738.499 2768.65 747.201C2836.73 755.904 2997.48 794.298 3197.64 711.367C3397.79 628.436 3298.48 839.347 3225.79 885.419C3153.1 931.492 3116.24 1032.85 2922.74 1067.66C2767.93 1095.51 2716.61 1069.03 2710.29 1052.3C2650.74 1026.54 2519.14 960.467 2469.18 902.313C2406.73 829.62 2281.82 747.201 2232.16 747.201C2182.51 747.201 2115.96 709.32 1963.92 735.939C1811.88 762.559 1680.32 878.253 1657.79 972.958C1645.85 999.577 1617.97 1057.42 1601.99 1075.85C1582.03 1098.89 1493.98 1344.1 1538.01 1431.12C1582.03 1518.15 1596.36 1606.71 1619.91 1648.69C1643.46 1690.67 1708.98 1732.64 1713.59 1749.54C1718.2 1766.43 1968.7 2093.93 1776.05 2154.98C1599.95 2210.78 1484.77 2275.79 1337.33 2374.08C1189.9 2472.37 1572.82 2640.28 1263.11 2756.48C1213.11 2794.88 1094.17 2839.62 1018.41 2711.43C923.707 2551.2 915.516 2643.86 864.837 2566.56C824.293 2504.72 813.474 2423.73 813.133 2390.97C799.482 2330.39 776.275 2198.9 792.657 2157.54C809.038 2116.17 788.561 2056.69 776.275 2032.12C734.639 2007.03 655.566 1919.6 672.356 1770.53C661.947 1687.25 655.566 1500.13 713.31 1417.81C771.054 1335.5 724.742 1151.45 694.369 1069.71L641.13 568.542L544.89 89.898L512.639 -86.202M2267 4079.5C2225.53 4094.52 2144.83 4102.81 2168.17 4044.66C2175.55 4027.05 2197.52 4016.5 2207.59 4013.43C2257.12 4002.62 2338.58 3997.53 2278.79 4060M2267 4079.5C2271.42 4075.43 2275.34 4063.6 2278.79 4060M2267 4079.5L2278.79 4060M2440.51 4102.32C2516.79 4043.27 2639.85 3919.05 2521.91 3894.48C2503.99 3885.26 2447.68 3865.4 2365.77 3859.67C2263.39 3852.5 2228.58 3896.01 2082.17 3902.16C1965.05 3907.07 1927.91 3907.62 1923.99 3907.27C1892.93 3918.37 1954.44 3914.79 1927 3979.5C1899.56 4044.21 1963 4070 1991 4101M1485.5 4101C1557.68 4007.32 1700.49 3813.39 1830.31 3781.85C1992.59 3742.44 1987.98 3805.91 2168.17 3759.84C2348.37 3713.77 2508.6 3606.27 2767.11 3720.42C2800.05 3736.12 2848.41 3792.91 2778.38 3894.48C2708.35 3996.04 2609.23 4074.91 2552.92 4101.87M2554 4101.35C2710.82 4022 3009.46 3825.47 2901.75 3670.26C2794.04 3515.04 2455.87 3584.08 2300.25 3638.01C2186.6 3671.96 1932.08 3737.01 1823.14 3725.54C1686.97 3711.21 1662.4 3869.9 1520.6 3907.27C1490.23 3942.77 1422.21 4013.75 1393.13 4013.75M1393.13 4013.75C1366.93 4019.09 1331.73 4025.38 1292.5 4031.15M1393.13 4013.75L1416 4107.5M636.522 4049.59H605.296C596.576 4041.34 583.253 4030.68 566.59 4020M636.522 4049.59L630.5 4105M636.522 4049.59C669.991 4043.29 724.519 4036.28 780.5 4031.5M350 4099C348.232 4060.9 328.303 3990.65 396 3978.32M1455.59 -85.6901C1491.59 35.2933 1612.33 262.517 1807.27 203.544C1915.29 170.867 2058.45 224.703 2062.21 272.141C2129.95 311.388 2275.27 389.882 2314.58 389.882C2363.72 389.882 2512.18 558.303 2576.17 576.733C2640.16 595.162 2805 772.797 3078.36 664.783C3351.72 556.768 3343.53 543.458 3382.95 543.458C3414.48 543.458 3584.81 438.003 3666.04 385.275L3903.05 275.724C3914.83 266.851 3945.34 251.767 3973.19 262.415C4001.03 273.062 3965.34 348.758 3944.01 385.275C3907.49 433.225 3819.41 537.622 3759.21 571.613C3683.95 614.103 3593.86 707.784 3569.29 759.999C3544.71 812.215 3332.27 980.124 3258.55 1034.39C3199.58 1077.8 2994.06 1159.98 2898.68 1195.64C2866.08 1218.17 2773.36 1243.66 2663.2 1165.44C2553.03 1087.22 2424.81 971.422 2374.48 923.301L2266.97 862.895L2169.2 854.704C2136.26 842.589 2059.75 818.051 2017.16 816.822C1963.92 815.287 1841.57 850.097 1796.01 902.313C1750.45 954.529 1641.41 1188.48 1630.66 1290.86C1622.06 1372.77 1684.41 1484.02 1716.66 1529.41C1725.37 1571.73 1760.18 1664.87 1829.8 1698.86C1916.82 1741.35 2021.77 1988.6 2021.77 2058.74C2021.77 2128.87 2082.17 2256.85 1946.51 2410.42L1758.13 2390.97C1731.51 2374.59 1663.22 2353.91 1603.02 2402.23C1542.82 2450.56 1534.59 2545.57 1538.01 2587.04C1568.89 2637.2 1572 2760.78 1337.33 2853.75C1102.67 2946.71 1044.01 2914.32 1044.01 2886.51C1010.56 2856.99 934.15 2780.64 896.063 2711.43L776.275 2633.11C759.553 2579.19 726.107 2448.72 726.107 2358.21C726.107 2245.07 703.583 2094.57 672.356 2055.67C641.129 2016.76 609.903 1759.78 608.367 1721.89C606.831 1684.01 628.275 1423.96 683.618 1343.59C727.893 1279.29 683.637 1122.95 655.975 1052.82L603.248 509.671L512.639 155.935L464.519 -86.202M4167.71 275.724C4031.2 408.141 3750.61 678.707 3720.3 701.641C3682.42 730.308 3621.5 907.944 3495.06 984.22C3368.61 1060.5 3078.87 1190.52 3023.07 1240.18C2967.27 1289.84 2862.33 1356.9 2841.34 1356.9C2820.35 1356.9 2696.47 1294.44 2663.2 1267.31C2629.92 1240.18 2364.75 972.446 2232.16 947.874C2099.58 923.301 1941.39 840.883 1822.63 999.577C1703.87 1158.27 1736.12 1377.89 1745.84 1393.24C1755.57 1408.6 1839.01 1594.43 1944.98 1690.67C2050.94 1786.91 2162.03 1976.83 2182.51 2077.68C2202.98 2178.53 2206.57 2174.43 2164.59 2230.23C2122.61 2286.03 2061.69 2463.66 2101.62 2544.04C2141.55 2624.41 2217.83 2763.65 2055.55 2802.04C1893.27 2840.44 1720.25 2744.71 1564.11 2911.08C1514.46 2920.64 1382.28 2949.27 1250.82 2987.36C1086.5 3034.97 975.411 2996.06 870.468 2853.75C765.525 2711.43 822.859 2762.11 715.869 2664.34M715.869 2654.61L624.236 2102.25L595.569 2032.63V1839.12L570.485 1684.01C577.822 1577.53 605.193 1355.77 655.975 1320.55L624.236 1044.11L570.485 586.971L446.09 16.1817L394.898 -86.202M326.439 -85.6901C335.797 -47.3593 362.592 49.0221 394.898 127.901C435.281 226.501 473.696 284.987 476.257 413.455C478.818 541.922 544.89 607.22 544.89 693.45C544.89 779.68 605.374 927.779 615.831 1232.98C617.283 1258.3 612.658 1326.3 582.539 1395.8C544.89 1482.68 558.724 1505.73 551.807 1544.14C544.89 1582.56 548.494 1755.68 559.49 1886.22L551.807 2032.12C565.093 2106.69 598.179 2276.3 624.236 2358.21C650.293 2440.12 649.978 2498.42 646.564 2517.33C651.259 2560.44 665.003 2655.62 682.417 2691.48C704.186 2736.3 759.382 2820.98 792.657 2853.75C825.931 2886.51 983.953 3178.07 1136.66 3138.38C1289.37 3098.68 1232.98 3062.82 1381.57 3062.82C1399.5 3062.82 1515.45 3134.83 1564.11 3111.78C1636.13 3096.4 1798.94 3042.65 1874.07 2950.68C1985.8 2919.38 2211.51 2852.89 2220.58 2837.34C2231.91 2817.91 2358.2 2803.34 2311.25 2654.37C2248.64 2576.47 2145.12 2401.41 2231.91 2324.42C2340.39 2228.18 2466.69 2113.57 2612.41 2209.1C2669.61 2226.37 2790.81 2264.15 2818.05 2277.11C2845.28 2290.06 2937.34 2333.5 2979.96 2353.6L3164.87 2448.74C3221.48 2462.23 3336.46 2486.63 3343.53 2476.27C3352.37 2463.31 3443.05 2555.6 3493.24 2563.7C3543.43 2571.8 3658.39 2544.76 3697.25 2437.4C3736.11 2330.05 3791.17 2239.72 3679.44 2138.6C3590.07 2057.69 3460.58 1983.5 3407.01 1956.51C3347.99 1918.67 3216.94 1810.78 3164.87 1681.96C3112.8 1553.15 3048.64 1481.01 3023.07 1461.04C3004.55 1430.7 2990.72 1354.2 3083.59 1290.86C3199.68 1211.69 3393.25 1093.49 3495.06 1044.91C3576.5 1006.05 3621.69 954.24 3634.11 933.19C3683.76 850.073 3914.22 599.64 3914.22 599.64C3914.22 599.64 4110.62 388.992 4167.71 348.668M4064.93 -89.052L3838.09 98.293L3562.65 302.123C3404.33 397.558 3082.44 588.631 3061.37 589.441C3035.04 590.454 2901.37 663.366 2721.12 565.137C2576.91 486.553 2461.2 390.619 2421.37 352.475C2342.72 300.036 2182.58 191.243 2171.24 175.587C2157.06 156.016 1928.2 -40.4434 1916.04 -82.9758M115.156 -85.6901C142.473 -3.95711 199.157 182.342 207.352 273.677C217.596 387.845 267.536 646.916 286.743 693.45C305.951 739.984 367.32 997.53 394.898 1025.17C422.476 1052.82 413.513 1364.58 389.183 1395.8C390.891 1429.46 397.891 1504.19 412.232 1533.9V1676.04L440.403 1781.79L426.318 1909.09L400.708 1992.32L377.659 2119.09C372.537 2146.93 363.829 2210.76 369.976 2243.3C376.122 2275.84 400.708 2326.01 412.232 2347.02C412.232 2347.02 409.671 2472.35 419.915 2587.04C430.159 2701.72 547.965 2875.87 562.051 2997.52C557.837 3052.58 564.374 3180.89 624.236 3253.62C699.064 3344.54 784.858 3489.23 920.591 3523.81C1056.32 3558.38 1117.79 3534.05 1216.39 3583.99C1314.98 3633.93 1428.95 3633.93 1478.89 3604.48L1596.69 3583.99L1790.05 3508.44L1964.2 3449.54L2066.64 3382.95C2094.26 3360.76 2151.36 3305.1 2158.83 3260.02C2166.31 3214.95 2222.56 3182.34 2249.75 3171.67C2291.58 3159.72 2390.09 3136.84 2449.51 3140.94C2508.92 3145.03 2579.26 3071.79 2607.01 3034.65C2643.72 3011.18 2731.47 2973.7 2788.84 3011.6C2846.21 3049.51 2807.62 3113.62 2781.16 3140.94C2757.68 3160.14 2741.21 3198.56 2863.11 3198.56C3015.49 3198.56 3108.96 3155.02 3164.03 3207.52C3208.08 3249.52 3223.36 3316.37 3225.49 3344.54C3233.6 3372.28 3279.78 3422.14 3399.64 3399.6C3549.46 3371.43 3531.53 3249.78 3544.33 3224.17C3557.14 3198.56 3604.52 3101.24 3667.26 3033.37C3730.01 2965.51 3899.03 2797.76 3947.69 2752.94C3996.35 2708.12 4034.77 2585.55 4100.07 2353.6C4152.32 2168.04 4091.96 2072.14 4055.25 2047.38C4023.24 1994.88 3932.07 1885.78 3823.48 1869.39C3687.75 1848.9 3497.62 1755.43 3461.78 1656.83C3425.95 1558.23 3452.14 1423.78 3532.81 1410.97L3796.59 1299.57C3820.07 1263.71 3871.12 1181.25 3887.51 1138.22C3903.9 1095.2 4079.58 980.293 4165.38 928.219M24.5 4102.32C11.2682 4047.35 -23.1375 3920 -18.0155 3850.34C-12.8935 3780.68 -27.8328 3700.09 -35.9427 3668.51M85 4100.5C67.0731 3983.64 -5.46635 3738.93 3.75312 3687.71C12.9726 3636.49 -18.8693 3585.27 -35.9427 3566.06M85 4101.5C77.317 3962.45 40.6315 3674.4 24.2411 3631.37C7.85072 3588.35 -22.7108 3511.86 -35.9427 3478.99M-35.9427 3421.37C6.74074 3494.78 91.3393 3655.19 88.2661 3709.48C84.4246 3777.35 137.598 4089.97 144 4100.5M-11.6129 4109C-19.7228 4075.91 -35.9427 4002.75 -35.9427 3974.85M141.5 4100.5C149.61 3979.37 138.462 3722.8 118.998 3658.26C99.5345 3593.72 7.5944 3441.86 -35.9427 3373.99M175 4099C170.305 4027.39 145.632 3875.18 170.218 3826.01C194.804 3776.84 180.462 3685.15 170.218 3645.46L46.0096 3455.94L-35.9427 3320.21M-32.119 3249.22C-16.9186 3281.94 13.8622 3349.67 15.3822 3358.79C16.9023 3367.91 50.9462 3404.31 67.7781 3421.37C87.8393 3460.21 139.998 3549.42 188.145 3595.52C236.292 3641.61 244.06 3704.36 241.926 3729.97C179.182 3910.52 199.5 4087.23 199.5 4102.32C196.8 4039.9 231.571 3893.8 298.813 3808.74C366.054 3723.67 288.905 3618.69 241.926 3576.83C214.159 3537.68 154.661 3457.34 138.811 3449.24C118.998 3439.11 35.5187 3339.03 33.4933 3320.21C31.468 3301.39 -18.7432 3168.73 -32.119 3163.66M-32.5743 2078.44C-24.5657 2023.71 -11.752 1897.28 -24.5657 1829.37C-40.5829 1744.48 -50.1932 1476.99 -24.5657 1467.38C1.06177 1457.77 12.2736 1261.56 3.46418 1247.14C-5.34526 1232.73 -37.3798 1005.28 -30.9727 983.658C-25.8471 966.359 -33.1083 917.72 -37.3796 895.563M-31.0106 2421.22C-17.0022 2511.75 28.9196 2706.18 100.539 2759.63C172.159 2813.08 154.293 2681.22 136.407 2608.61C93.6942 2497.56 11.6329 2260.71 25.0874 2201.77C41.9054 2128.09 42.7062 2069.63 31.4942 2042.4C20.2822 2015.17 9.87105 1863.01 11.4728 1846.19C13.0745 1829.37 -6.14612 1663.59 11.4728 1604.33C25.5679 1556.92 23.2187 1490.6 20.2822 1463.38L45.9097 1336.04C36.8333 1202.03 8.74984 917.827 -30.9727 853.117M-31.0106 2608.61C-12.0443 2708.72 43.3469 2909.25 113.182 2910.54C183.017 2911.82 182.257 2732.06 178.786 2641.83L148.42 2501.29L131.602 2359.54L87.5543 2186.55L81.9483 2048.81L64.3294 1976.73L56.3208 1869.41L45.1088 1806.14C42.9732 1751.69 42.2257 1638.28 56.3208 1620.34C70.4159 1602.4 62.1938 1519.44 56.3208 1480.19C64.5964 1426.8 81.1474 1318.9 81.1474 1314.41C81.1474 1308.81 64.3294 1097.38 50.7148 1070.95C32.829 979.921 -8.5487 792.412 -30.9727 770.628M-30.9727 660.91C20.0153 809.07 119.428 1126.85 109.177 1212.7C125.195 1319.22 89.156 1533.9 93.9612 1620.34C88.3552 1681.21 82.7492 1813.99 105.173 1858.2C127.597 1902.41 128.398 2014.37 125.996 2064.82C125.195 2111.27 131.922 2216.67 165.238 2266.64C198.553 2316.61 195.67 2401.72 190.064 2438.03L200.475 2608.61L213.289 2659.06C217.026 2775.99 206.882 3012.73 136.407 3024.26C65.9311 3035.79 -5.3086 2863.02 -32.119 2775.19M289 4101C294.311 4036.52 308.936 3892.3 416.399 3826.01C523.861 3759.71 382.784 3576.61 298.813 3493.35C229.057 3454.36 85.1929 3365.14 67.7781 3320.21C46.0096 3264.04 -6.03613 3118.76 -32.119 3101.14M-35.9427 3045.08C-25.3667 3063.5 117.186 3306.16 155.627 3337.4C194.068 3368.63 301.383 3380.7 333.418 3320.21C365.452 3259.71 380.668 3079.83 367.054 3038.67C353.439 2997.52 321.405 2869.69 310.994 2840.86C302.665 2817.8 294.71 2745.82 291.773 2712.72L266.972 2623.94C264.988 2601.7 268.664 2546.03 299.238 2501.29C301.327 2463.34 302.935 2382.91 292.66 2364.87C280.965 2327.38 255.632 2251.15 247.863 2246.14C238.152 2239.88 230.947 2133.99 236.899 2123.97C242.851 2113.94 267.912 2053.48 269.792 2029.99C271.671 2006.49 274.804 1815.09 269.792 1810.39C264.78 1805.69 249.743 1695.11 252.562 1680.39C255.382 1665.66 257.888 1551.83 252.562 1542.86C248.302 1535.69 245.984 1412.48 245.357 1351.77C241.807 1317.42 231.762 1226.65 219.983 1138.44C208.204 1050.22 184.793 975.959 174.56 949.854C170.174 917.901 161.09 851.301 159.837 840.525C158.27 827.054 134.776 729.629 131.017 722.111C127.257 714.592 90.2924 567.045 86.22 556.081C82.9621 547.309 79.2238 456.567 77.7619 412.292C72.332 359.246 59.9686 252.214 53.954 248.455C46.4357 243.756 25.9712 188.779 18.8686 172.958L-38.4527 -22.6885M-34.0192 109.682C-31.4858 117.283 29.9491 366.191 34.3826 399.125C38.816 432.06 48.4135 611.484 67.3168 652.467C86.22 693.45 78.0837 779.82 112.285 810.172C139.645 834.454 131.707 903.892 124.318 935.576C139.941 975.267 172.073 1067.06 175.62 1116.72C180.053 1178.78 199.054 1241.94 200.32 1288.99C201.587 1336.04 190.82 1498.07 184.487 1551.2C178.153 1604.33 194.62 1768.31 207.92 1798.84C221.221 1829.37 242.755 2052.4 214.887 2085.75C187.02 2119.09 225.021 2243.3 227.554 2243.3C230.088 2243.3 266.972 2355.56 266.972 2402.42C266.972 2449.29 273.387 2499.91 242.121 2574.7C251.511 2629.38 269.626 2745.45 266.972 2772.3C264.319 2799.16 295.214 2973.08 310.994 3056.68C318.226 3122.97 318.503 3258.72 261.755 3271.39C190.82 3287.22 155.986 3247.32 29.3158 3085.81C-72.0202 2956.61 -79.1982 2912.49 -70.1202 2906.57M-32.119 2883.77C-20.0858 2910.54 53.3828 3085.18 188.92 3183.98C207.709 3196.44 245.795 3199.31 247.821 3111.15C249.848 3022.98 242.754 2908.9 238.954 2862.87C239.588 2804.82 238.828 2681.48 230.721 2652.6C220.587 2616.5 216.787 2580.4 223.754 2520.86C230.721 2461.33 237.688 2365.69 230.721 2336.56C223.754 2307.42 163.586 2149.36 169.286 2095.88C174.986 2042.4 182.586 1948.48 169.286 1903.34C155.986 1858.2 166.752 1798.2 140.785 1770.97C120.011 1749.18 140.574 1504.33 153.452 1384.62C155.986 1319.81 157.252 1182.84 142.052 1153.45C123.051 1116.72 86.317 917.842 86.317 912.142C86.317 907.582 77.8723 858.729 73.65 834.873C63.0942 811.236 41.6025 759.777 40.0824 743.037C38.1824 722.111 27.4154 641.7 13.4817 635.366C-0.451962 629.033 -31.7523 516.062 -21.8495 491.502C-11.9466 466.943 -6.00493 393.265 -8.77773 384.155C-10.996 376.866 -30.8281 318.796 -40.4668 290.671M4164.1 3224.17L3852.93 3454.66C3787.63 3467.04 3652.66 3514.33 3635.25 3604.48C3617.83 3694.63 3470.92 3760.29 3399.64 3781.85C3324.94 3811.08 3166.07 3878.76 3128.17 3915.64C3090.27 3952.52 2787.55 4054.41 2694.5 4101.27C2803.68 4043.57 2986.98 3920.42 2997.87 3885.19C3008.76 3849.95 3150.3 3765.86 3219.71 3728.22C3285.92 3721.54 3395.26 3699.23 3303 3663.35C3296.59 3663.35 3266.16 3660.35 3230.92 3670.26C3202.73 3678.18 3131.62 3602.21 3099.58 3563.24C3065.44 3508.36 2974.14 3398.6 2882.13 3398.6C2767.11 3398.6 2748.35 3392.72 2643.14 3434.82C2558.97 3468.5 2452.66 3473.68 2410.02 3472.06C2381.41 3466.66 2303.48 3473.03 2220.58 3541.68C2137.67 3610.34 1925.86 3640.45 1830.31 3646.93C1731.56 3690.44 1514.94 3785.68 1438.52 3818.56C1342.99 3859.67 1192.41 3913.02 1002.96 3839.61C813.521 3766.2 679.54 3672.13 645.127 3604.48C610.714 3536.83 475.115 3413.98 465.4 3271.39C455.685 3128.79 422.876 2904.67 387.68 2883.77C359.523 2867.05 339.773 2632.51 333.418 2517.33C332.78 2444.49 325.051 2284.7 299.238 2228.18C273.426 2171.67 304.402 2072.51 323.116 2029.99C331.076 1949.41 342.219 1777.02 323.116 1732.14C304.014 1687.26 299.238 1409.7 299.238 1276.53C294.54 1181.31 278.626 973.879 252.562 905.896C219.983 820.918 159.326 712.913 131.017 533.219C108.369 389.464 121.58 311.623 131.017 290.671L-8.77773 -86.202M4164.1 3454.66L3802.99 3781.85C3733.85 3820.05 3563.8 3896.69 3436.77 3897.72C3410.74 3905.83 3345.34 3934.85 3292.08 3986.07C3238.81 4037.29 3184.51 4087.66 3164.03 4106.44M3467.5 4106C3502.5 4075.5 3525.99 4023.83 3549.48 4025.45C3578.85 4027.47 3729.74 4003.61 3782.39 3959.63C3824.52 3924.44 3922.82 3878.13 3966.7 3859.37L4164.1 3656.83M3948.9 4103.42C3991.5 4077 4012.27 4001.15 4012.27 4001.15L4164.1 3888.74M3170.21 4100.75C3227.94 4058.93 3229.07 3970.16 3251.76 3943.42C3280.11 3910 3428.97 3831.02 3503.91 3836.08C3578.85 3841.14 3775.31 3726.71 3836.07 3656.83C3884.67 3600.94 4075.01 3432.36 4164.1 3355.06M3171 4106.44C3162.5 4053.94 3181.07 3941.19 3266.95 3879.62C3352.82 3818.05 3470.15 3796.58 3518.09 3793.55C3600.01 3744.26 3771.68 3635.16 3802.99 3593.04C3834.31 3550.91 4056.78 3379.02 4164.1 3298.35M4164.1 3537.34C4086.82 3616.67 3924.98 3778.96 3895.81 3793.55C3859.36 3811.77 3810.75 3888.74 3653.79 3914.05C3496.82 3939.37 3533.28 3918.11 3421.88 3959.63C3332.77 3992.84 3374.58 4065.9 3355 4101C3420.97 4056.21 3542.34 3966.29 3653.79 3959.63C3765.24 3952.96 3887.23 3855.58 3934.29 3807.72C3998.04 3743.79 4133.25 3613.63 4164.1 3604.48M3598 4102.5C3638 4057 3821.28 4045.5 3895.81 3975.83C3970.35 3906.16 4105.72 3795.57 4164.1 3748.99M4164.1 3822.91C4112.47 3854.64 4003.76 3926.41 3981.89 3959.63C3960.02 3992.84 3828.5 4063 3787.53 4103.42M2692.5 4102.32C2812.67 4039.22 3092.16 3906.36 3114.03 3879.62C3141.37 3846.21 3300.33 3761.14 3349.98 3769.24C3399.64 3777.34 3525.18 3661.9 3492.77 3592.02C3466.85 3536.12 3376.65 3522.15 3334.79 3522.15C3277.41 3524.85 3156.77 3502.1 3133.27 3389.49C3109.78 3276.88 3026.27 3267.63 2987.45 3277.08C2900.02 3285.52 2708.76 3304.83 2643.14 3314.55C2577.52 3324.27 2516.55 3307.12 2494.26 3297.34C2443.64 3285.52 2311.8 3289.23 2189.47 3398.6C2067.14 3507.97 1988.32 3527.21 1964.2 3523.16C1870.17 3553.2 1675.43 3617.34 1648.7 3633.54C1615.28 3653.8 1404.65 3776.33 1359.08 3766.2C1322.62 3758.1 1206.16 3693.97 1152.49 3662.91C1110.97 3641.31 996.744 3601.34 871.983 3614.3C716.032 3630.51 742.361 3528.23 730.209 3484.68C720.488 3449.84 646.495 3383.75 610.714 3355.06C568.52 3294.01 488.789 3145.27 507.422 3038.67C526.055 2932.08 446.999 2798.09 405.142 2744.41C392.04 2658.8 366.08 2461.69 367.054 2358.21C352.746 2302.48 323.926 2187.67 323.116 2174.28C322.104 2157.54 327.308 2136.1 352.484 2095.88C377.659 2055.67 369.976 1991.06 369.976 1983.9C369.976 1978.16 388.415 1926.69 397.635 1901.68C406.746 1868.4 420.293 1787.91 401.596 1732.14C382.9 1676.37 383.771 1665.33 386.544 1666.78L375.453 1533.9L356.439 1428.71L369.115 1315.42C374.524 1237.15 376.634 1071.64 341.805 1035.78C306.975 999.927 295.707 899.066 294.426 853.117C278.07 806.443 245.357 711.813 245.357 706.691C245.357 701.569 228.441 612.457 219.983 568.542L175.62 326.38L60.3249 -86.202M4166.69 1345.63C4128.64 1382.83 4052.74 1476.07 4053.56 1551.43C4054.38 1626.78 4129.32 1652.1 4166.69 1655.35M4166.69 1776.67C4069.43 1731.28 3873.87 1631.59 3869.78 1595.96C3865.68 1560.33 3932.57 1501.6 3966.53 1476.69L4166.69 1180.8M4165.38 1077.39C4117.86 1101.62 4021 1170.15 4013.63 1250.42C4006.26 1330.69 3931.72 1407.06 3895.38 1435.22C3841.28 1453.14 3729.11 1503 3713.13 1559.1L3663.99 1617.46C3655.87 1649.2 3658.03 1716.88 3731.56 1733.67C3805.1 1750.46 3828.41 1745.1 3830.87 1740.32L4023.87 1831.45L4161.06 1885.71M4165.38 1006.74C4103.19 1036.44 3973.19 1112.81 3950.66 1180.8C3922.51 1265.78 3898.45 1349.73 3859.03 1366.11C3819.61 1382.49 3787.36 1409.62 3739.75 1417.81C3701.67 1424.37 3661.43 1455.36 3646.07 1470.03C3603.07 1470.78 3519.12 1499.89 3527.31 1610.3C3535.5 1720.71 3651.19 1775.07 3708.01 1788.44C3751.02 1801.75 3843.57 1827.66 3869.78 1824.79C3895.99 1821.92 4017.21 1917.79 4074.55 1966.08L4166.69 2022.39M4166.69 672.461C4134.61 689.867 4059.6 751.911 4016.19 860.847C3972.78 969.784 3941.79 1003.16 3931.72 1006.23L3806.81 1113.22C3771.83 1156.05 3684.16 1249.39 3613.31 1280.11C3524.75 1318.5 3435.68 1325.16 3395.75 1475.15C3363.8 1595.14 3385.51 1647.67 3400.35 1658.93C3439.77 1713.19 3534.68 1827.04 3598.98 1848.34C3679.35 1874.96 3824.22 1904.14 3864.15 1933.83C3904.08 1963.52 4004.41 2065.39 4024.89 2135.01C4045.37 2204.63 3992.13 2601.37 3918.92 2689.93C3860.36 2760.78 3705.8 2922.51 3635.83 2994.52L3440.79 3220.28C3416.73 3238.54 3356.74 3259.29 3309.23 3196.22C3249.85 3117.38 3224.77 3102.03 3131.6 3071.82C3038.43 3041.62 3046.62 3074.38 2993.89 2974.05C2951.71 2893.78 2854.48 2872 2811.14 2871.15C2781.28 2866.72 2691.15 2877.29 2569.51 2955.11C2447.88 3032.92 2385.05 3056.81 2368.84 3059.03L2116.47 3134.28C2072.27 3152.19 1975.28 3199.7 1940.88 3246.39C1897.88 3304.75 1863.58 3378.46 1794.47 3399.45C1725.37 3420.44 1688 3456.79 1619.91 3464.98C1565.44 3471.53 1531.01 3480.33 1520.6 3483.92L1441.77 3477.26L1372.14 3483.92L1291.26 3477.26L1143.83 3456.79L963.636 3440.92C929.85 3433.24 851.834 3409.38 810.062 3375.39C768.289 3341.4 749.656 3310.38 745.56 3299.12L660.07 3153.73C646.419 3134.79 615.739 3066.4 602.224 2944.36L535.675 2764.67C516.393 2713.14 477.01 2600.24 473.733 2560.93C470.457 2521.61 460.082 2405.99 455.304 2353.09C439.094 2323.91 406.058 2250.6 403.601 2190.81C401.144 2131.02 416.911 2039.28 425.101 2000.89C436.534 1961.3 460.526 1876.29 465.031 1852.95C470.662 1823.77 461.959 1714.73 432.78 1676.85L422.542 1403.99L435.852 1308.26L454.792 1140.35C456.157 1087.12 453.359 972.958 431.244 942.242C409.13 911.527 369.473 812.727 352.409 767.166C332.786 716.828 288.522 577.654 268.455 423.669C248.388 269.684 231.085 232.553 224.942 233.235L200.882 74.5404L144.06 -89.7855M4165.67 406.776L4022.33 558.303L3927.11 656.08L3783.27 815.799C3730.88 886.273 3620.99 1032.85 3600.51 1055.38C3580.04 1077.9 3498.47 1105.37 3460.25 1116.29C3359.91 1162.03 3156.37 1285.33 3144.91 1412.7C3183.47 1532.66 3268.69 1776.87 3301.04 1794.07C3347.8 1839.81 3458.4 1936.18 3526.8 1955.84C3612.29 1980.41 3834.97 2085.36 3847.77 2211.29C3860.57 2337.22 3737.71 2584.48 3641.98 2654.61C3546.25 2724.74 3446.94 2786.17 3336.36 2662.8C3247.91 2564.1 3084.84 2511.78 3014.37 2497.96L2709.27 2485.68C2639.14 2426.98 2484.02 2321.45 2424.64 2368.96C2365.26 2416.47 2388.64 2479.88 2407.75 2505.64C2437.27 2536.02 2490.78 2619.7 2468.67 2711.43C2441.02 2826.1 2258.78 2913.64 2150.26 2931.05C2063.44 2944.97 1926.04 3017.73 1868.19 3052.37C1783.9 3116.53 1582.95 3242.7 1453.54 3234.1C1291.77 3223.35 1093.66 3230.01 1057.83 3219.26C1021.99 3208.51 925.755 3190.59 883.266 3080.01C840.777 2969.44 779.859 2973.54 733.275 2866.54C686.69 2759.55 672.357 2792.83 648.808 2708.87C625.26 2624.92 598.129 2515.88 594.034 2409.91C590.757 2325.14 547.961 2235.01 526.973 2200.54C517.417 2150.71 505.267 2006.42 533.116 1827.86L515.71 1660.46C518.27 1584.87 525.335 1429.28 533.116 1411.67C542.842 1389.66 589.426 1222.77 578.164 1194.62C569.154 1172.09 556.322 1009.47 551.032 930.98C540.624 846.514 509.055 663.247 466.055 605.912C423.054 548.577 391.144 354.048 380.565 263.95L259.241 -88.7616M4165.38 558.303L3927.11 803.513C3902.88 857.093 3844.9 969.681 3806.81 991.387C3759.21 1018.52 3720.3 1078.41 3706.99 1103.5C3693.68 1128.58 3602.56 1201.79 3548.81 1213.05C3495.06 1224.31 3329.71 1312.87 3326.64 1492.55C3323.57 1672.24 3373.22 1762.34 3475.09 1818.65C3576.96 1874.96 3755.11 1959.42 3772.52 1946.63C3789.92 1933.83 3985.98 2015.74 3974.21 2286.03C3962.44 2556.32 3800.67 2745.73 3766.37 2772.86C3732.07 2799.99 3538.06 3070.29 3409.57 3083.6C3306.77 3094.25 3170.84 2967.22 3115.73 2902.38C3065.22 2837.71 2944.65 2707.75 2866.43 2705.29C2788.2 2702.83 2681.28 2784.47 2637.6 2825.59C2565.76 2890.09 2373.96 3025.55 2181.48 3051.35C1989 3077.15 1806.08 3236.49 1738.68 3312.94C1632.2 3351.5 1387.09 3421.16 1258.5 3391.26C1129.91 3361.36 1054.07 3361.4 1032.23 3365.15C960.565 3373 811.188 3352.76 787.025 3209.02C762.863 3065.27 692.321 2980.19 660.07 2955.62L571.509 2735.49L487.555 2324.42C465.372 2287.01 425.408 2190.19 443.018 2102.25C465.031 1992.32 459.912 1919.66 473.733 1914.38C484.791 1910.15 487.555 1796.92 487.555 1740.84L452.233 1666.78L465.031 1518.66C464.007 1445.46 465.645 1291.88 480.388 1263.22C498.817 1227.38 487.555 953.505 480.388 942.242C473.221 930.98 425.613 750.134 401.041 743.037C381.384 737.359 340.976 572.981 323.23 491.502L252.562 193.306L175.62 -85.6901M4156.45 2488.24C4141.09 2527.82 4113.35 2623.59 4125.23 2689.93C4137.1 2756.28 4011.82 2827.47 3947.69 2854.77C3858.28 2939.92 3679.44 3113.29 3679.44 3125.58C3679.44 3140.94 3592.39 3244.34 3653.79 3369.25C3702.9 3469.18 4014.46 3270.62 4164.1 3158.85M4164.1 2977.63C4151.65 2981.21 4128.5 2993.3 4135.46 3012.95C4142.43 3032.61 4168.06 3023.53 4180 3016.54M2150.26 -88.2497C2225 -56.1695 2393.42 36.0441 2469.18 148.257C2563.88 288.522 2878.71 455.408 2939.63 448.753C3000.55 442.098 3266.23 322.821 3365.03 213.782C3444.07 126.551 3634.81 -24.6012 3720.3 -89.2735M3447.96 -85.1782C3353.43 14.6459 3131.39 215.83 2999.52 221.973C2867.65 228.116 2565.76 10.5506 2431.3 -99M2779.4 -99C2810.32 -79.5471 2891.07 -40.3341 2966.76 -39.1055C3042.45 -37.8769 3107.85 -78.5233 3131.09 -99M2033.03 -88.2497C2230.17 98.6006 2664.77 474.349 2825.98 482.54C3027.51 492.778 3025.63 523.493 3078.36 460.527C3120.54 410.154 3323.65 333.936 3419.93 302.123C3568.34 188.21 3867.73 -48.7296 3877.97 -85.1782M3569.29 -85.1782C3422.54 55.2581 3099.76 335.824 2982.63 334.595C2865.5 333.366 2509.96 54.2343 2346.83 -85.1782M2587.43 -85.1782C2659.1 -5.83082 2883.11 101.263 2982.63 79.1477C3082.15 57.0328 3252.24 -28.3552 3301.04 -89.2735M396 3978.32C400.155 3977.56 411.615 3975.13 416.399 3974.85C433.267 3973.85 449.926 3975.24 466 3978.32M396 3978.32L439.5 4101M466 3978.32L482.5 4101M466 3978.32C485.404 3982.04 503.957 3988.22 521 3995.62M529 4101L521 3995.62M521 3995.62C537.893 4002.95 553.303 4011.48 566.59 4020M566.59 4020L572.5 4110.5M780.5 4031.5C855.772 4025.07 935.689 4023.3 989.738 4038.57C1016.71 4046.2 1053.5 4049.01 1094.5 4048.69M780.5 4031.5L768.5 4108M1094.5 4048.69L1127.5 4101M1094.5 4048.69C1130.67 4048.4 1170.11 4045.68 1209 4041.66M1209 4041.66L1237.5 4104.5M1209 4041.66C1237.65 4038.71 1265.99 4035.05 1292.5 4031.15M1292.5 4031.15L1320 4102.32M2278.79 4060C2278.79 4060 2294.5 4086.82 2318.5 4102.32M2485.24 4100.8L2482.98 4102.32C2482.98 4110.85 2405.06 4106.62 2451.75 4021.43C2498.44 3936.25 2424.12 3903.86 2354.5 3907.27C2321.74 3908.98 2289.24 3900.62 2231.5 3925.19C2173.76 3949.76 2088.67 3974.52 2067 3973.5C1986.32 4000.53 2112.22 4076 2135.5 4102M2490 4106L2558.5 4103.5C2612.33 4067.16 2646.68 3984.11 2671.36 3935.94C2696.75 3886.39 2668.29 3840.21 2650.89 3823.32C2608.4 3816.84 2517.79 3799.46 2495.26 3781.85C2472.74 3764.24 2227.19 3810.69 2107.23 3836.12C2041.54 3831.51 1896.22 3827.93 1840.52 3850.45C1784.83 3872.98 1670.29 4026.43 1607.5 4101M2232.16 1305.7C2250.93 1294.27 2280.69 1251.13 2249.57 1170.05C2210.66 1068.69 2041.22 1141.38 2062.21 1181.82C2083.2 1222.26 2065.28 1261.68 2182.51 1315.94C2194.37 1316.97 2220.92 1316.35 2232.16 1305.7ZM2249.57 1690.67C2190.19 1615.42 2246.5 1534.02 2202.98 1482.83C2159.47 1431.64 2011.53 1362.53 1993.61 1320.55C1968.36 1284.37 1920.51 1201.27 1931.16 1158.27C1944.47 1104.52 1943.95 1082.51 2021.77 1053.33C2084.01 1029.99 2154.86 1041.21 2182.51 1049.75C2218 1056.4 2298.92 1087.53 2338.64 1158.78C2388.3 1247.86 2337.62 1216.63 2374.48 1290.86C2399.9 1324.82 2458.12 1392.83 2487.61 1393.24C2517.09 1393.65 2586.24 1484.19 2617.12 1529.41C2633.68 1550.74 2644.46 1619.72 2555.18 1724.97C2465.9 1830.22 2390 1832.98 2363.21 1821.21L2294.1 1759.78L2249.57 1690.67ZM2256.22 1925.13L2075.52 1710.12C2049.92 1665.24 1997.71 1565.66 1993.61 1526.34C1989.51 1487.03 1947.2 1456.04 1926.55 1445.46C1887.98 1402.8 1814.64 1300.79 1829.8 1234.04C1848.74 1150.59 1845.15 997.018 2017.16 972.958C2154.76 953.709 2288.81 1028.07 2338.64 1067.66C2364.07 1087.97 2418.7 1141.99 2433.86 1195.64C2449.01 1249.29 2542.55 1309.46 2587.43 1332.84C2626 1350.24 2710.7 1413.92 2741.01 1529.41C2778.89 1673.77 2675.99 1778.72 2629.92 1884.68C2583.85 1990.65 2559.79 2021.37 2490.68 2028.02C2421.57 2034.68 2284.38 1970.69 2256.22 1925.13ZM2396.49 673.997C2393.25 673.485 2386.45 675.635 2385.23 688.331C2384 701.026 2399.05 699.422 2406.73 697.033C2412.02 689.355 2417.37 673.997 2396.49 673.997ZM2563.88 806.584C2562.18 816.14 2564.5 834.125 2587.43 829.62C2616.1 823.989 2585.9 799.417 2563.88 806.584ZM3457.69 2286.03C3468.95 2281.76 3485.54 2255.52 3461.78 2184.67C3446.43 2180.23 3416.84 2160.1 3421.34 2115.05C3425.85 2070 3343.7 2006.86 3302.07 1980.93C3282.27 1971.03 3236.03 1941.71 3209.41 1903.63C3176.14 1856.02 3133.13 1847.31 3123.92 1804.31C3116.55 1769.91 3053.62 1708.41 3023.07 1681.96C2999.52 1657.56 2940.35 1627.19 2892.02 1700.91C2831.62 1793.05 2861.82 1805.85 2852.09 1835.54C2842.37 1865.23 2795.27 1940.48 2852.09 2009.59C2897.55 2064.88 2929.73 2068.12 2940.14 2062.83C2956.52 2068.63 2994.4 2091.91 3014.88 2138.6H3051.74L3075.29 2178.53L3111.63 2182.11C3125.63 2203.44 3155.86 2250.5 3164.87 2268.11H3199.68L3222.21 2307.53H3269.3C3274.08 2327.66 3295.62 2365.07 3343.53 2353.6C3359.91 2356.16 3395.54 2355.04 3407.01 2330.05C3421.34 2298.83 3401.38 2285.52 3425.95 2268.11C3445.61 2254.19 3455.3 2274.25 3457.69 2286.03Z" stroke="#361400" stroke-width="15"/>
</g>
<defs>
<clipPath id="clip0_7_15">
<rect width="4096" height="4096" fill="white"/>
</clipPath>
</defs>
</svg>
