<svg width="4096" height="4096" viewBox="0 0 4096 4096" fill="none" xmlns="http://www.w3.org/2000/svg">
<g clip-path="url(#clip0_7_15)">
<rect width="4096" height="4096"/>
<path d="M4161.72 13.0112C4137.96 27.1599 4078.75 54.1758 4031.98 49.0502C3973.52 42.6432 3997.54 92.2967 3927.07 121.128C3856.59 149.959 3799.73 233.249 3664.39 302.123C3529.04 370.997 3465.77 446.278 3420.93 464.698C3376.08 483.118 3208.7 583.226 3028.51 639.286C2884.35 684.135 2724.45 616.328 2662.51 576.819L2362.99 362.989C2276.77 319.208 2099.67 220.435 2081.09 175.587C2057.87 119.526 1892.89 39.4397 1872.87 33.0328C1852.85 26.6259 1686.27 53.0544 1652.63 33.0328C1618.99 13.0112 1553.32 -50.257 1551.72 -87.0967M635.987 -86.202L630.867 45.873L659.023 206.104L681.547 319.749L743.489 473.837L754.751 533.219V650.449L770.62 718.534L764.477 788.155L786.49 942.242V1044.11L815.157 1155.2L832.05 1263.22L839.217 1401.43L806.454 1518.66L798.776 1684.01L806.454 1781.79L849.455 1846.8L924.195 1940.48L949.791 2016.76L953.374 2220.5L970.779 2272.72L1008.15 2305.48L1045.01 2324.42H1072.14L1116.16 2283.98L1146.37 2228.18L1204.21 2147.3L1292.26 2082.28L1327.07 2032.63L1332.19 1978.88V1886.22L1316.83 1759.78L1311.71 1721.89L1321.44 1648.69L1338.33 1599.03L1343.45 1395.8L1359.32 1246.83L1363.93 1091.21L1382.87 1025.17L1406.93 969.886L1418.19 937.123L1456.59 892.074L1500.1 840.883L1527.74 795.322L1595.32 714.951L1717.66 629.972L1732.51 595.162L1717.66 549.089L1552.83 429.812L1335.77 167.71L1285.09 97.5768L1251.31 31.5392L1220.08 -27.3314L1190.9 -85.6901M772.156 -85.6901L779.323 -44.7366L765.501 32.5631C760.894 63.2782 754.444 143.24 765.501 217.366C772.327 245.18 791.302 307.668 812.597 335.107C833.893 362.546 837.511 393.636 836.657 405.752C835.54 421.621 855.598 459.503 855.598 478.956C858.84 488.853 865.427 515.302 865.837 541.922L868.908 627.412L898.599 765.63L902.695 788.667V905.896L888.873 968.862V1005.72L918.052 1117.32V1184.89C918.735 1193.77 926.345 1211.82 951.326 1213.05C955.422 1216.12 965.046 1225.95 970.779 1240.69L988.184 1276.53L995.863 1303.15L988.184 1368.16L984.089 1436.24C984.26 1450.24 988.594 1482.11 1004.57 1497.67C1020.54 1513.24 1059.68 1482.32 1077.26 1464.91C1092.62 1450.07 1126.09 1421.71 1137.15 1427.03C1148.21 1432.35 1171.11 1393.75 1181.18 1373.79C1189.2 1347.51 1205.34 1291.68 1205.75 1278.57C1206.16 1265.47 1204.21 1210.32 1203.19 1184.38C1193.63 1167.32 1169.3 1128.79 1148.41 1111.18C1122.31 1089.16 1102.85 1092.23 1091.59 1069.71C1082.58 1051.69 1085.11 1004.18 1087.5 982.684C1090.91 957.941 1098.14 903.03 1099.78 881.324C1101.42 859.619 1092.27 795.151 1087.5 765.63L1062.41 670.926C1058.32 635.262 1057.6 559.532 1087.5 541.922C1117.39 524.312 1201.99 564.617 1240.56 586.971C1264.62 589.531 1318.98 594.445 1343.97 593.626C1375.19 592.602 1437.65 580.828 1442.77 550.113C1447.88 519.398 1447.88 493.802 1429.97 455.92C1415.63 425.614 1390.21 397.902 1379.29 387.835L1315.3 285.451L1237.49 182.043L1123.84 -2.24738L1092.61 -50.8797C1089.2 -57.1933 1082.17 -72.9945 1081.35 -85.6901M565.342 -85.6901L574.045 16.1817L589.402 110.375L604.248 173.341L618.582 273.677L637.01 369.917L674.892 458.479L689.738 559.839L697.928 693.45L714.31 820.918L722.5 965.279L738.37 1089.68L765.501 1208.44C774.374 1249.73 787.718 1347.37 770.108 1407.58C748.096 1482.83 728.643 1542.72 720.453 1645.11C713.9 1727.01 727.961 1808.58 735.81 1839.12C747.584 1861.65 782.292 1914.48 826.931 1945.6C882.73 1984.51 873.515 2117.1 871.468 2130.41C869.42 2143.72 849.455 2234.32 865.837 2291.15C882.218 2347.97 911.397 2430.39 938.017 2460.59C964.636 2490.8 1085.45 2625.43 1137.66 2633.11C1189.88 2640.79 1224.69 2619.29 1218.03 2551.2C1188.51 2451.89 1191.01 2239.85 1437.13 2186.2C1497.37 2159.58 1607.29 2075.12 1565.11 1950.21C1522.93 1825.3 1511.7 1711.83 1511.36 1670.7C1508.8 1632.82 1489.25 1530.23 1431.5 1422.93C1428.94 1391.2 1428.43 1320.45 1446.86 1291.37C1449.93 1161.86 1529.59 862.383 1823.63 700.617C1937.79 667.342 2196 608.062 2315.58 637.139C2321.72 640.893 2336.77 647.582 2347.83 644.306C2358.89 641.029 2325.14 610.86 2306.88 596.185L2278.21 555.232C2232.65 524.517 2123.61 462.575 2051.94 460.527C1962.36 457.967 1938.81 473.325 1897.35 473.837C1855.88 474.349 1761.18 465.646 1644.46 389.882C1551.09 329.271 1450.27 202.52 1411.54 146.721C1363.76 90.4099 1285.1 -42.689 1293.8 -85.6901M1379.29 -85.6901C1434.23 74.5404 1611.9 391.009 1883.01 375.037C1910.31 353.024 1989.49 322.207 2087.78 375.037C2210.64 441.074 2309.44 424.693 2432.3 543.458C2555.16 662.223 2701.57 738.499 2769.65 747.201C2837.73 755.904 2998.48 794.298 3198.64 711.367C3398.79 628.436 3299.48 839.347 3226.79 885.419C3154.1 931.492 3117.24 1032.85 2923.74 1067.66C2768.93 1095.51 2717.61 1069.03 2711.29 1052.3C2651.74 1026.54 2520.14 960.467 2470.18 902.313C2407.73 829.62 2282.82 747.201 2233.16 747.201C2183.51 747.201 2116.96 709.32 1964.92 735.939C1812.88 762.559 1681.32 878.253 1658.79 972.958C1646.85 999.577 1618.97 1057.42 1602.99 1075.85C1583.03 1098.89 1494.98 1344.1 1539.01 1431.12C1583.03 1518.15 1597.36 1606.71 1620.91 1648.69C1644.46 1690.67 1709.98 1732.64 1714.59 1749.54C1719.2 1766.43 1969.7 2093.93 1777.05 2154.98C1600.95 2210.78 1485.77 2275.79 1338.33 2374.08C1190.9 2472.37 1573.82 2640.28 1264.11 2756.48C1214.11 2794.88 1095.17 2839.62 1019.41 2711.43C924.707 2551.2 916.516 2643.86 865.837 2566.56C825.293 2504.72 814.474 2423.73 814.133 2390.97C800.482 2330.39 777.275 2198.9 793.657 2157.54C810.038 2116.17 789.561 2056.69 777.275 2032.12C735.639 2007.03 656.566 1919.6 673.356 1770.53C662.947 1687.25 656.566 1500.13 714.31 1417.81C772.054 1335.5 725.742 1151.45 695.369 1069.71L642.13 568.542L545.89 89.898L513.639 -86.202M1874.31 4102.32C1880.45 4075.7 1912.91 4015.7 1993.59 3988.67C2015.26 3989.69 2073.04 3985.6 2130.78 3961.03C2188.52 3936.45 2268.48 3926.9 2301.25 3925.19C2370.87 3921.78 2498.44 3936.25 2451.75 4021.43C2405.06 4106.62 2393.39 4110.85 2393.39 4102.32M2441.51 4102.32C2517.79 4043.27 2640.85 3919.05 2522.91 3894.48C2504.99 3885.26 2448.68 3865.4 2366.77 3859.67C2264.39 3852.5 2229.58 3896.01 2083.17 3902.16C1966.05 3907.07 1928.91 3907.62 1924.99 3907.27C1893.93 3918.37 1824.96 3956.73 1797.52 4021.43C1770.08 4086.14 1742.41 4102.32 1732 4102.32M1452.49 4102.32C1524.67 4008.63 1701.49 3813.39 1831.31 3781.85C1993.59 3742.44 1988.98 3805.91 2169.17 3759.84C2349.37 3713.77 2509.6 3606.27 2768.11 3720.42C2801.05 3736.12 2849.41 3792.91 2779.38 3894.48C2709.35 3996.04 2579.22 4075.35 2522.91 4102.32M2482.98 4102.32C2535.19 4067.51 2645.97 3985.5 2671.36 3935.94C2696.75 3886.39 2668.29 3840.21 2650.89 3823.32C2608.4 3816.84 2517.79 3799.46 2495.26 3781.85C2472.74 3764.24 2227.19 3810.69 2107.23 3836.12C2041.54 3831.51 1896.22 3827.93 1840.52 3850.45C1784.83 3872.98 1645.31 4027.75 1582.52 4102.32M2566.93 4102.32C2723.75 4022.97 3010.46 3825.47 2902.75 3670.26C2795.04 3515.04 2456.87 3584.08 2301.25 3638.01C2187.6 3671.96 1933.08 3737.01 1824.14 3725.54C1687.97 3711.21 1663.4 3869.9 1521.6 3907.27C1491.23 3942.77 1423.21 4013.75 1394.13 4013.75C1298.94 4033.12 1084.98 4065.21 990.738 4038.57C896.493 4011.94 715.992 4034.82 637.522 4049.59H606.296C577.799 4022.63 500.124 3969.93 417.399 3974.85C334.673 3979.76 317.746 4061.87 319.623 4102.32M1456.59 -85.6901C1492.59 35.2933 1613.33 262.517 1808.27 203.544C1916.29 170.867 2059.45 224.703 2063.21 272.141C2130.95 311.388 2276.27 389.882 2315.58 389.882C2364.72 389.882 2513.18 558.303 2577.17 576.733C2641.16 595.162 2806 772.797 3079.36 664.783C3352.72 556.768 3344.53 543.458 3383.95 543.458C3415.48 543.458 3585.81 438.003 3667.04 385.275L3904.05 275.724C3915.83 266.851 3946.34 251.767 3974.19 262.415C4002.03 273.062 3966.34 348.758 3945.01 385.275C3908.49 433.225 3820.41 537.622 3760.21 571.613C3684.95 614.103 3594.86 707.784 3570.29 759.999C3545.71 812.215 3333.27 980.124 3259.55 1034.39C3200.58 1077.8 2995.06 1159.98 2899.68 1195.64C2867.08 1218.17 2774.36 1243.66 2664.2 1165.44C2554.03 1087.22 2425.81 971.422 2375.48 923.301L2267.97 862.895L2170.2 854.704C2137.26 842.589 2060.75 818.051 2018.16 816.822C1964.92 815.287 1842.57 850.097 1797.01 902.313C1751.45 954.529 1642.41 1188.48 1631.66 1290.86C1623.06 1372.77 1685.41 1484.02 1717.66 1529.41C1726.37 1571.73 1761.18 1664.87 1830.8 1698.86C1917.82 1741.35 2022.77 1988.6 2022.77 2058.74C2022.77 2128.87 2083.17 2256.85 1947.51 2410.42L1759.13 2390.97C1732.51 2374.59 1664.22 2353.91 1604.02 2402.23C1543.82 2450.56 1535.59 2545.57 1539.01 2587.04C1569.89 2637.2 1573 2760.78 1338.33 2853.75C1103.67 2946.71 1045.01 2914.32 1045.01 2886.51C1011.56 2856.99 935.15 2780.64 897.063 2711.43L777.275 2633.11C760.553 2579.19 727.107 2448.72 727.107 2358.21C727.107 2245.07 704.583 2094.57 673.356 2055.67C642.129 2016.76 610.903 1759.78 609.367 1721.89C607.831 1684.01 629.275 1423.96 684.618 1343.59C728.893 1279.29 684.637 1122.95 656.975 1052.82L604.248 509.671L513.639 155.935L465.519 -86.202M4168.71 275.724C4032.2 408.141 3751.61 678.707 3721.3 701.641C3683.42 730.308 3622.5 907.944 3496.06 984.22C3369.61 1060.5 3079.87 1190.52 3024.07 1240.18C2968.27 1289.84 2863.33 1356.9 2842.34 1356.9C2821.35 1356.9 2697.47 1294.44 2664.2 1267.31C2630.92 1240.18 2365.75 972.446 2233.16 947.874C2100.58 923.301 1942.39 840.883 1823.63 999.577C1704.87 1158.27 1737.12 1377.89 1746.84 1393.24C1756.57 1408.6 1840.01 1594.43 1945.98 1690.67C2051.94 1786.91 2163.03 1976.83 2183.51 2077.68C2203.98 2178.53 2207.57 2174.43 2165.59 2230.23C2123.61 2286.03 2062.69 2463.66 2102.62 2544.04C2142.55 2624.41 2218.83 2763.65 2056.55 2802.04C1894.27 2840.44 1721.25 2744.71 1565.11 2911.08C1515.46 2920.64 1383.28 2949.27 1251.82 2987.36C1087.5 3034.97 976.411 2996.06 871.468 2853.75C766.525 2711.43 823.859 2762.11 716.869 2664.34M716.869 2654.61L625.236 2102.25L596.569 2032.63V1839.12L571.485 1684.01C578.822 1577.53 606.193 1355.77 656.975 1320.55L625.236 1044.11L571.485 586.971L447.09 16.1817L395.898 -86.202M327.439 -85.6901C336.797 -47.3593 363.592 49.0221 395.898 127.901C436.281 226.501 474.696 284.987 477.257 413.455C479.818 541.922 545.89 607.22 545.89 693.45C545.89 779.68 606.374 927.779 616.831 1232.98C618.283 1258.3 613.658 1326.3 583.539 1395.8C545.89 1482.68 559.724 1505.73 552.807 1544.14C545.89 1582.56 549.494 1755.68 560.49 1886.22L552.807 2032.12C566.093 2106.69 599.179 2276.3 625.236 2358.21C651.293 2440.12 650.978 2498.42 647.564 2517.33C652.259 2560.44 666.003 2655.62 683.417 2691.48C705.186 2736.3 760.382 2820.98 793.657 2853.75C826.931 2886.51 984.953 3178.07 1137.66 3138.38C1290.37 3098.68 1233.98 3062.82 1382.57 3062.82C1400.5 3062.82 1516.45 3134.83 1565.11 3111.78C1637.13 3096.4 1799.94 3042.65 1875.07 2950.68C1986.8 2919.38 2212.51 2852.89 2221.58 2837.34C2232.91 2817.91 2359.2 2803.34 2312.25 2654.37C2249.64 2576.47 2146.12 2401.41 2232.91 2324.42C2341.39 2228.18 2467.69 2113.57 2613.41 2209.1C2670.61 2226.37 2791.81 2264.15 2819.05 2277.11C2846.28 2290.06 2938.34 2333.5 2980.96 2353.6L3165.87 2448.74C3222.48 2462.23 3337.46 2486.63 3344.53 2476.27C3353.37 2463.31 3444.05 2555.6 3494.24 2563.7C3544.43 2571.8 3659.39 2544.76 3698.25 2437.4C3737.11 2330.05 3792.17 2239.72 3680.44 2138.6C3591.07 2057.69 3461.58 1983.5 3408.01 1956.51C3348.99 1918.67 3217.94 1810.78 3165.87 1681.96C3113.8 1553.15 3049.64 1481.01 3024.07 1461.04C3005.55 1430.7 2991.72 1354.2 3084.59 1290.86C3200.68 1211.69 3394.25 1093.49 3496.06 1044.91C3577.5 1006.05 3622.69 954.24 3635.11 933.19C3684.76 850.073 3915.22 599.64 3915.22 599.64C3915.22 599.64 4111.62 388.992 4168.71 348.668M4065.93 -89.052L3839.09 98.293L3563.65 302.123C3405.33 397.558 3083.44 588.631 3062.37 589.441C3036.04 590.454 2902.37 663.366 2722.12 565.137C2577.91 486.553 2462.2 390.619 2422.37 352.475C2343.72 300.036 2183.58 191.243 2172.24 175.587C2158.06 156.016 1929.2 -40.4434 1917.04 -82.9758M116.156 -85.6901C143.473 -3.95711 200.157 182.342 208.352 273.677C218.596 387.845 268.536 646.916 287.743 693.45C306.951 739.984 368.32 997.53 395.898 1025.17C423.476 1052.82 414.513 1364.58 390.183 1395.8C391.891 1429.46 398.891 1504.19 413.232 1533.9V1676.04L441.403 1781.79L427.318 1909.09L401.708 1992.32L378.659 2119.09C373.537 2146.93 364.829 2210.76 370.976 2243.3C377.122 2275.84 401.708 2326.01 413.232 2347.02C413.232 2347.02 410.671 2472.35 420.915 2587.04C431.159 2701.72 548.965 2875.87 563.051 2997.52C558.837 3052.58 565.374 3180.89 625.236 3253.62C700.064 3344.54 785.858 3489.23 921.591 3523.81C1057.32 3558.38 1118.79 3534.05 1217.39 3583.99C1315.98 3633.93 1429.95 3633.93 1479.89 3604.48L1597.69 3583.99L1791.05 3508.44L1965.2 3449.54L2067.64 3382.95C2095.26 3360.76 2152.36 3305.1 2159.83 3260.02C2167.31 3214.95 2223.56 3182.34 2250.75 3171.67C2292.58 3159.72 2391.09 3136.84 2450.51 3140.94C2509.92 3145.03 2580.26 3071.79 2608.01 3034.65C2644.72 3011.18 2732.47 2973.7 2789.84 3011.6C2847.21 3049.51 2808.62 3113.62 2782.16 3140.94C2758.68 3160.14 2742.21 3198.56 2864.11 3198.56C3016.49 3198.56 3109.96 3155.02 3165.03 3207.52C3209.08 3249.52 3224.36 3316.37 3226.49 3344.54C3234.6 3372.28 3280.78 3422.14 3400.64 3399.6C3550.46 3371.43 3532.53 3249.78 3545.33 3224.17C3558.14 3198.56 3605.52 3101.24 3668.26 3033.37C3731.01 2965.51 3900.03 2797.76 3948.69 2752.94C3997.35 2708.12 4035.77 2585.55 4101.07 2353.6C4153.32 2168.04 4092.96 2072.14 4056.25 2047.38C4024.24 1994.88 3933.07 1885.78 3824.48 1869.39C3688.75 1848.9 3498.62 1755.43 3462.78 1656.83C3426.95 1558.23 3453.14 1423.78 3533.81 1410.97L3797.59 1299.57C3821.07 1263.71 3872.12 1181.25 3888.51 1138.22C3904.9 1095.2 4080.58 980.293 4166.38 928.219M16.2775 4102.32C3.04563 4047.35 -22.1375 3920 -17.0155 3850.34C-11.8935 3780.68 -26.8328 3700.09 -34.9427 3668.51M47.0096 4102.32C29.0827 3985.46 -4.46635 3738.93 4.75312 3687.71C13.9726 3636.49 -17.8693 3585.27 -34.9427 3566.06M68.7781 4102.32C61.0951 3963.26 41.6315 3674.4 25.2411 3631.37C8.85072 3588.35 -21.7108 3511.86 -34.9427 3478.99M-34.9427 3421.37C7.74074 3494.78 92.3393 3655.19 89.2661 3709.48C85.4246 3777.35 89.2661 4091.79 95.6686 4102.32M-10.6129 4109C-18.7228 4075.91 -34.9427 4002.75 -34.9427 3974.85M119.998 4102.32C128.108 3981.19 139.462 3722.8 119.998 3658.26C100.535 3593.72 8.5944 3441.86 -34.9427 3373.99M154.572 4102.32C149.876 4030.7 146.632 3875.18 171.218 3826.01C195.804 3776.84 181.462 3685.15 171.218 3645.46L47.0096 3455.94L-34.9427 3320.21M189.145 4102.32C189.145 4087.23 180.182 3910.52 242.926 3729.97C245.06 3704.36 237.292 3641.61 189.145 3595.52C140.998 3549.42 88.8393 3460.21 68.7781 3421.37C51.9462 3404.31 17.9023 3367.91 16.3822 3358.79C14.8622 3349.67 -15.9186 3281.94 -31.119 3249.22M223.862 4102.32C221.162 4039.9 232.571 3893.8 299.813 3808.74C367.054 3723.67 289.905 3618.69 242.926 3576.83C215.159 3537.68 155.661 3457.34 139.811 3449.24C119.998 3439.11 36.5187 3339.03 34.4933 3320.21C32.468 3301.39 -17.7432 3168.73 -31.119 3163.66M-31.5743 2078.44C-23.5657 2023.71 -10.752 1897.28 -23.5657 1829.37C-39.5829 1744.48 -49.1932 1476.99 -23.5657 1467.38C2.06177 1457.77 13.2736 1261.56 4.46418 1247.14C-4.34526 1232.73 -36.3798 1005.28 -29.9727 983.658C-24.8471 966.359 -32.1083 917.72 -36.3796 895.563M-30.0106 2421.22C-16.0022 2511.75 29.9196 2706.18 101.539 2759.63C173.159 2813.08 155.293 2681.22 137.407 2608.61C94.6942 2497.56 12.6329 2260.71 26.0874 2201.77C42.9054 2128.09 43.7062 2069.63 32.4942 2042.4C21.2822 2015.17 10.871 1863.01 12.4728 1846.19C14.0745 1829.37 -5.14612 1663.59 12.4728 1604.33C26.5679 1556.92 24.2187 1490.6 21.2822 1463.38L46.9097 1336.04C37.8333 1202.03 9.74984 917.827 -29.9727 853.117M-30.0106 2608.61C-11.0443 2708.72 44.3469 2909.25 114.182 2910.54C184.017 2911.82 183.257 2732.06 179.786 2641.83L149.42 2501.29L132.602 2359.54L88.5543 2186.55L82.9483 2048.81L65.3294 1976.73L57.3208 1869.41L46.1088 1806.14C43.9732 1751.69 43.2257 1638.28 57.3208 1620.34C71.4159 1602.4 63.1938 1519.44 57.3208 1480.19C65.5964 1426.8 82.1474 1318.9 82.1474 1314.41C82.1474 1308.81 65.3294 1097.38 51.7148 1070.95C33.829 979.921 -7.5487 792.412 -29.9727 770.628M-29.9727 660.91C21.0153 809.07 120.428 1126.85 110.177 1212.7C126.195 1319.22 90.156 1533.9 94.9612 1620.34C89.3552 1681.21 83.7492 1813.99 106.173 1858.2C128.597 1902.41 129.398 2014.37 126.996 2064.82C126.195 2111.27 132.922 2216.67 166.238 2266.64C199.553 2316.61 196.67 2401.72 191.064 2438.03L201.475 2608.61L214.289 2659.06C218.026 2775.99 207.882 3012.73 137.407 3024.26C66.9311 3035.79 -4.3086 2863.02 -31.119 2775.19M267.138 4102.32C272.449 4037.84 309.936 3892.3 417.399 3826.01C524.861 3759.71 383.784 3576.61 299.813 3493.35C230.057 3454.36 86.1929 3365.14 68.7781 3320.21C47.0096 3264.04 -5.03613 3118.76 -31.119 3101.14M-34.9427 3045.08C-24.3667 3063.5 118.186 3306.16 156.627 3337.4C195.068 3368.63 302.383 3380.7 334.418 3320.21C366.452 3259.71 381.668 3079.83 368.054 3038.67C354.439 2997.52 322.405 2869.69 311.994 2840.86C303.665 2817.8 295.71 2745.82 292.773 2712.72L267.972 2623.94C265.988 2601.7 269.664 2546.03 300.238 2501.29C302.327 2463.34 303.935 2382.91 293.66 2364.87C281.965 2327.38 256.632 2251.15 248.863 2246.14C239.152 2239.88 231.947 2133.99 237.899 2123.97C243.851 2113.94 268.912 2053.48 270.792 2029.99C272.671 2006.49 275.804 1815.09 270.792 1810.39C265.78 1805.69 250.743 1695.11 253.562 1680.39C256.382 1665.66 258.888 1551.83 253.562 1542.86C249.302 1535.69 246.984 1412.48 246.357 1351.77C242.807 1317.42 232.762 1226.65 220.983 1138.44C209.204 1050.22 185.793 975.959 175.56 949.854C171.174 917.901 162.09 851.301 160.837 840.525C159.27 827.054 135.776 729.629 132.017 722.111C128.257 714.592 91.2924 567.045 87.22 556.081C83.9621 547.309 80.2238 456.567 78.7619 412.292C73.332 359.246 60.9686 252.214 54.954 248.455C47.4357 243.756 26.9712 188.779 19.8686 172.958L-37.4527 -22.6885M-33.0192 109.682C-30.4858 117.283 30.9491 366.191 35.3826 399.125C39.816 432.06 49.4135 611.484 68.3168 652.467C87.22 693.45 79.0837 779.82 113.285 810.172C140.645 834.454 132.707 903.892 125.318 935.576C140.941 975.267 173.073 1067.06 176.62 1116.72C181.053 1178.78 200.054 1241.94 201.32 1288.99C202.587 1336.04 191.82 1498.07 185.487 1551.2C179.153 1604.33 195.62 1768.31 208.92 1798.84C222.221 1829.37 243.755 2052.4 215.887 2085.75C188.02 2119.09 226.021 2243.3 228.554 2243.3C231.088 2243.3 267.972 2355.56 267.972 2402.42C267.972 2449.29 274.387 2499.91 243.121 2574.7C252.511 2629.38 270.626 2745.45 267.972 2772.3C265.319 2799.16 296.214 2973.08 311.994 3056.68C319.226 3122.97 319.503 3258.72 262.755 3271.39C191.82 3287.22 156.986 3247.32 30.3158 3085.81C-71.0202 2956.61 -78.1982 2912.49 -69.1202 2906.57M-31.119 2883.77C-19.0858 2910.54 54.3828 3085.18 189.92 3183.98C208.709 3196.44 246.795 3199.31 248.821 3111.15C250.848 3022.98 243.754 2908.9 239.954 2862.87C240.588 2804.82 239.828 2681.48 231.721 2652.6C221.587 2616.5 217.787 2580.4 224.754 2520.86C231.721 2461.33 238.688 2365.69 231.721 2336.56C224.754 2307.42 164.586 2149.36 170.286 2095.88C175.986 2042.4 183.586 1948.48 170.286 1903.34C156.986 1858.2 167.752 1798.2 141.785 1770.97C121.011 1749.18 141.574 1504.33 154.452 1384.62C156.986 1319.81 158.252 1182.84 143.052 1153.45C124.051 1116.72 87.317 917.842 87.317 912.142C87.317 907.582 78.8723 858.729 74.65 834.873C64.0942 811.236 42.6025 759.777 41.0824 743.037C39.1824 722.111 28.4154 641.7 14.4817 635.366C0.548038 629.033 -30.7523 516.062 -20.8495 491.502C-10.9466 466.943 -5.00493 393.265 -7.77773 384.155C-9.99596 376.866 -29.8281 318.796 -39.4668 290.671M2802.64 4102.32C2895.69 4055.46 3091.27 3952.52 3129.17 3915.64C3167.07 3878.76 3325.94 3811.08 3400.64 3781.85C3471.92 3760.29 3618.83 3694.63 3636.25 3604.48C3653.66 3514.33 3788.63 3467.04 3853.93 3454.66L4165.1 3224.17M4165.1 3454.66L3803.99 3781.85C3734.85 3820.05 3564.8 3896.69 3437.77 3897.72C3411.74 3905.83 3346.34 3934.85 3293.08 3986.07C3239.81 4037.29 3185.51 4087.66 3165.03 4106.44M3375.29 4106.44C3423.9 4078.77 3526.99 4023.83 3550.48 4025.45C3579.85 4027.47 3730.74 4003.61 3783.39 3959.63C3825.52 3924.44 3923.82 3878.13 3967.7 3859.37L4165.1 3656.83M3903.9 4103.42L4013.27 4001.15L4165.1 3888.74M3051.23 4102.32C3108.96 4060.49 3230.07 3970.16 3252.76 3943.42C3281.11 3910 3429.97 3831.02 3504.91 3836.08C3579.85 3841.14 3776.31 3726.71 3837.07 3656.83C3885.67 3600.94 4076.01 3432.36 4165.1 3355.06M2883.13 4102.32C2975.62 4053.74 3182.07 3941.19 3267.95 3879.62C3353.82 3818.05 3471.15 3796.58 3519.09 3793.55C3601.01 3744.26 3772.68 3635.16 3803.99 3593.04C3835.31 3550.91 4057.78 3379.02 4165.1 3298.35M4165.1 3537.34C4087.82 3616.67 3925.98 3778.96 3896.81 3793.55C3860.36 3811.77 3811.75 3888.74 3654.79 3914.05C3497.82 3939.37 3534.28 3918.11 3422.88 3959.63C3333.77 3992.84 3272.33 4071.34 3252.76 4106.44M3317.57 4102.32C3383.53 4057.53 3543.34 3966.29 3654.79 3959.63C3766.24 3952.96 3888.23 3855.58 3935.29 3807.72C3999.04 3743.79 4134.25 3613.63 4165.1 3604.48M3519.09 4103.42C3613.94 4089.92 3822.28 4045.5 3896.81 3975.83C3971.35 3906.16 4106.72 3795.57 4165.1 3748.99M4165.1 3822.91C4113.47 3854.64 4004.76 3926.41 3982.89 3959.63C3961.02 3992.84 3848.2 4069.33 3794.53 4103.42M4022.38 4103.42C4029.47 4103.42 4094.13 4026.46 4165.1 4001.15M2727.18 4102.32C2847.35 4039.22 3093.16 3906.36 3115.03 3879.62C3142.37 3846.21 3301.33 3761.14 3350.98 3769.24C3400.64 3777.34 3526.18 3661.9 3493.77 3592.02C3467.85 3536.12 3377.65 3522.15 3335.79 3522.15C3278.41 3524.85 3157.77 3502.1 3134.27 3389.49C3110.78 3276.88 3027.27 3267.63 2988.45 3277.08C2901.02 3285.52 2709.76 3304.83 2644.14 3314.55C2578.52 3324.27 2517.55 3307.12 2495.26 3297.34C2444.64 3285.52 2312.8 3289.23 2190.47 3398.6C2068.14 3507.97 1989.32 3527.21 1965.2 3523.16C1871.17 3553.2 1676.43 3617.34 1649.7 3633.54C1616.28 3653.8 1405.65 3776.33 1360.08 3766.2C1323.62 3758.1 1207.16 3693.97 1153.49 3662.91C1111.97 3641.31 997.744 3601.34 872.983 3614.3C717.032 3630.51 743.361 3528.23 731.209 3484.68C721.488 3449.84 647.495 3383.75 611.714 3355.06C569.52 3294.01 489.789 3145.27 508.422 3038.67C527.055 2932.08 447.999 2798.09 406.142 2744.41C393.04 2658.8 367.08 2461.69 368.054 2358.21C353.746 2302.48 324.926 2187.67 324.116 2174.28C323.104 2157.54 328.308 2136.1 353.484 2095.88C378.659 2055.67 370.976 1991.06 370.976 1983.9C370.976 1978.16 389.415 1926.69 398.635 1901.68C407.746 1868.4 421.293 1787.91 402.596 1732.14C383.9 1676.37 384.771 1665.33 387.544 1666.78L376.453 1533.9L357.439 1428.71L370.115 1315.42C375.524 1237.15 377.634 1071.64 342.805 1035.78C307.975 999.927 296.707 899.066 295.426 853.117C279.07 806.443 246.357 711.813 246.357 706.691C246.357 701.569 229.441 612.457 220.983 568.542L176.62 326.38L61.3249 -86.202M2657.71 4102.32C2766.89 4044.62 2987.98 3920.42 2998.87 3885.19C3009.76 3849.95 3151.3 3765.86 3220.71 3728.22C3286.92 3721.54 3396.26 3699.23 3304 3663.35C3297.59 3663.35 3267.16 3660.35 3231.92 3670.26C3203.73 3678.18 3132.62 3602.21 3100.58 3563.24C3066.44 3508.36 2975.14 3398.6 2883.13 3398.6C2768.11 3398.6 2749.35 3392.72 2644.14 3434.82C2559.97 3468.5 2453.66 3473.68 2411.02 3472.06C2382.41 3466.66 2304.48 3473.03 2221.58 3541.68C2138.67 3610.34 1926.86 3640.45 1831.31 3646.93C1732.56 3690.44 1515.94 3785.68 1439.52 3818.56C1343.99 3859.67 1193.41 3913.02 1003.96 3839.61C814.521 3766.2 680.54 3672.13 646.127 3604.48C611.714 3536.83 476.115 3413.98 466.4 3271.39C456.685 3128.79 423.876 2904.67 388.68 2883.77C360.523 2867.05 340.773 2632.51 334.418 2517.33C333.78 2444.49 326.051 2284.7 300.238 2228.18C274.426 2171.67 305.402 2072.51 324.116 2029.99C332.076 1949.41 343.219 1777.02 324.116 1732.14C305.014 1687.26 300.238 1409.7 300.238 1276.53C295.54 1181.31 279.626 973.879 253.562 905.896C220.983 820.918 160.326 712.913 132.017 533.219C109.369 389.464 122.58 311.623 132.017 290.671L-7.77773 -86.202M4167.69 1345.63C4129.64 1382.83 4053.74 1476.07 4054.56 1551.43C4055.38 1626.78 4130.32 1652.1 4167.69 1655.35M4167.69 1776.67C4070.43 1731.28 3874.87 1631.59 3870.78 1595.96C3866.68 1560.33 3933.57 1501.6 3967.53 1476.69L4167.69 1180.8M4166.38 1077.39C4118.86 1101.62 4022 1170.15 4014.63 1250.42C4007.26 1330.69 3932.72 1407.06 3896.38 1435.22C3842.28 1453.14 3730.11 1503 3714.13 1559.1L3664.99 1617.46C3656.87 1649.2 3659.03 1716.88 3732.56 1733.67C3806.1 1750.46 3829.41 1745.1 3831.87 1740.32L4024.87 1831.45L4162.06 1885.71M4166.38 1006.74C4104.19 1036.44 3974.19 1112.81 3951.66 1180.8C3923.51 1265.78 3899.45 1349.73 3860.03 1366.11C3820.61 1382.49 3788.36 1409.62 3740.75 1417.81C3702.67 1424.37 3662.43 1455.36 3647.07 1470.03C3604.07 1470.78 3520.12 1499.89 3528.31 1610.3C3536.5 1720.71 3652.19 1775.07 3709.01 1788.44C3752.02 1801.75 3844.57 1827.66 3870.78 1824.79C3896.99 1821.92 4018.21 1917.79 4075.55 1966.08L4167.69 2022.39M4167.69 672.461C4135.61 689.867 4060.6 751.911 4017.19 860.847C3973.78 969.784 3942.79 1003.16 3932.72 1006.23L3807.81 1113.22C3772.83 1156.05 3685.16 1249.39 3614.31 1280.11C3525.75 1318.5 3436.68 1325.16 3396.75 1475.15C3364.8 1595.14 3386.51 1647.67 3401.35 1658.93C3440.77 1713.19 3535.68 1827.04 3599.98 1848.34C3680.35 1874.96 3825.22 1904.14 3865.15 1933.83C3905.08 1963.52 4005.41 2065.39 4025.89 2135.01C4046.37 2204.63 3993.13 2601.37 3919.92 2689.93C3861.36 2760.78 3706.8 2922.51 3636.83 2994.52L3441.79 3220.28C3417.73 3238.54 3357.74 3259.29 3310.23 3196.22C3250.85 3117.38 3225.77 3102.03 3132.6 3071.82C3039.43 3041.62 3047.62 3074.38 2994.89 2974.05C2952.71 2893.78 2855.48 2872 2812.14 2871.15C2782.28 2866.72 2692.15 2877.29 2570.51 2955.11C2448.88 3032.92 2386.05 3056.81 2369.84 3059.03L2117.47 3134.28C2073.27 3152.19 1976.28 3199.7 1941.88 3246.39C1898.88 3304.75 1864.58 3378.46 1795.47 3399.45C1726.37 3420.44 1689 3456.79 1620.91 3464.98C1566.44 3471.53 1532.01 3480.33 1521.6 3483.92L1442.77 3477.26L1373.14 3483.92L1292.26 3477.26L1144.83 3456.79L964.636 3440.92C930.85 3433.24 852.834 3409.38 811.062 3375.39C769.289 3341.4 750.656 3310.38 746.56 3299.12L661.07 3153.73C647.419 3134.79 616.739 3066.4 603.224 2944.36L536.675 2764.67C517.393 2713.14 478.01 2600.24 474.733 2560.93C471.457 2521.61 461.082 2405.99 456.304 2353.09C440.094 2323.91 407.058 2250.6 404.601 2190.81C402.144 2131.02 417.911 2039.28 426.101 2000.89C437.534 1961.3 461.526 1876.29 466.031 1852.95C471.662 1823.77 462.959 1714.73 433.78 1676.85L423.542 1403.99L436.852 1308.26L455.792 1140.35C457.157 1087.12 454.359 972.958 432.244 942.242C410.13 911.527 370.473 812.727 353.409 767.166C333.786 716.828 289.522 577.654 269.455 423.669C249.388 269.684 232.085 232.553 225.942 233.235L201.882 74.5404L145.06 -89.7855M4166.67 406.776L4023.33 558.303L3928.11 656.08L3784.27 815.799C3731.88 886.273 3621.99 1032.85 3601.51 1055.38C3581.04 1077.9 3499.47 1105.37 3461.25 1116.29C3360.91 1162.03 3157.37 1285.33 3145.91 1412.7C3184.47 1532.66 3269.69 1776.87 3302.04 1794.07C3348.8 1839.81 3459.4 1936.18 3527.8 1955.84C3613.29 1980.41 3835.97 2085.36 3848.77 2211.29C3861.57 2337.22 3738.71 2584.48 3642.98 2654.61C3547.25 2724.74 3447.94 2786.17 3337.36 2662.8C3248.91 2564.1 3085.84 2511.78 3015.37 2497.96L2710.27 2485.68C2640.14 2426.98 2485.02 2321.45 2425.64 2368.96C2366.26 2416.47 2389.64 2479.88 2408.75 2505.64C2438.27 2536.02 2491.78 2619.7 2469.67 2711.43C2442.02 2826.1 2259.78 2913.64 2151.26 2931.05C2064.44 2944.97 1927.04 3017.73 1869.19 3052.37C1784.9 3116.53 1583.95 3242.7 1454.54 3234.1C1292.77 3223.35 1094.66 3230.01 1058.83 3219.26C1022.99 3208.51 926.755 3190.59 884.266 3080.01C841.777 2969.44 780.859 2973.54 734.275 2866.54C687.69 2759.55 673.357 2792.83 649.808 2708.87C626.26 2624.92 599.129 2515.88 595.034 2409.91C591.757 2325.14 548.961 2235.01 527.973 2200.54C518.417 2150.71 506.267 2006.42 534.116 1827.86L516.71 1660.46C519.27 1584.87 526.335 1429.28 534.116 1411.67C543.842 1389.66 590.426 1222.77 579.164 1194.62C570.154 1172.09 557.322 1009.47 552.032 930.98C541.624 846.514 510.055 663.247 467.055 605.912C424.054 548.577 392.144 354.048 381.565 263.95L260.241 -88.7616M4166.38 558.303L3928.11 803.513C3903.88 857.093 3845.9 969.681 3807.81 991.387C3760.21 1018.52 3721.3 1078.41 3707.99 1103.5C3694.68 1128.58 3603.56 1201.79 3549.81 1213.05C3496.06 1224.31 3330.71 1312.87 3327.64 1492.55C3324.57 1672.24 3374.22 1762.34 3476.09 1818.65C3577.96 1874.96 3756.11 1959.42 3773.52 1946.63C3790.92 1933.83 3986.98 2015.74 3975.21 2286.03C3963.44 2556.32 3801.67 2745.73 3767.37 2772.86C3733.07 2799.99 3539.06 3070.29 3410.57 3083.6C3307.77 3094.25 3171.84 2967.22 3116.73 2902.38C3066.22 2837.71 2945.65 2707.75 2867.43 2705.29C2789.2 2702.83 2682.28 2784.47 2638.6 2825.59C2566.76 2890.09 2374.96 3025.55 2182.48 3051.35C1990 3077.15 1807.08 3236.49 1739.68 3312.94C1633.2 3351.5 1388.09 3421.16 1259.5 3391.26C1130.91 3361.36 1055.07 3361.4 1033.23 3365.15C961.565 3373 812.188 3352.76 788.025 3209.02C763.863 3065.27 693.321 2980.19 661.07 2955.62L572.509 2735.49L488.555 2324.42C466.372 2287.01 426.408 2190.19 444.018 2102.25C466.031 1992.32 460.912 1919.66 474.733 1914.38C485.791 1910.15 488.555 1796.92 488.555 1740.84L453.233 1666.78L466.031 1518.66C465.007 1445.46 466.645 1291.88 481.388 1263.22C499.817 1227.38 488.555 953.505 481.388 942.242C474.221 930.98 426.613 750.134 402.041 743.037C382.384 737.359 341.976 572.981 324.23 491.502L253.562 193.306L176.62 -85.6901M4157.45 2488.24C4142.09 2527.82 4114.35 2623.59 4126.23 2689.93C4138.1 2756.28 4012.82 2827.47 3948.69 2854.77C3859.28 2939.92 3680.44 3113.29 3680.44 3125.58C3680.44 3140.94 3593.39 3244.34 3654.79 3369.25C3703.9 3469.18 4015.46 3270.62 4165.1 3158.85M4165.1 2977.63C4152.65 2981.21 4129.5 2993.3 4136.46 3012.95C4143.43 3032.61 4169.06 3023.53 4181 3016.54M2151.26 -88.2497C2226 -56.1695 2394.42 36.0441 2470.18 148.257C2564.88 288.522 2879.71 455.408 2940.63 448.753C3001.55 442.098 3267.23 322.821 3366.03 213.782C3445.07 126.551 3635.81 -24.6012 3721.3 -89.2735M3448.96 -85.1782C3354.43 14.6459 3132.39 215.83 3000.52 221.973C2868.65 228.116 2566.76 10.5506 2432.3 -99M2780.4 -99C2811.32 -79.5471 2892.07 -40.3341 2967.76 -39.1055C3043.45 -37.8769 3108.85 -78.5233 3132.09 -99M2034.03 -88.2497C2231.17 98.6006 2665.77 474.349 2826.98 482.54C3028.51 492.778 3026.63 523.493 3079.36 460.527C3121.54 410.154 3324.65 333.936 3420.93 302.123C3569.34 188.21 3868.73 -48.7296 3878.97 -85.1782M3570.29 -85.1782C3423.54 55.2581 3100.76 335.824 2983.63 334.595C2866.5 333.366 2510.96 54.2343 2347.83 -85.1782M2588.43 -85.1782C2660.1 -5.83082 2884.11 101.263 2983.63 79.1477C3083.15 57.0328 3253.24 -28.3552 3302.04 -89.2735M2233.16 1305.7C2251.93 1294.27 2281.69 1251.13 2250.57 1170.05C2211.66 1068.69 2042.22 1141.38 2063.21 1181.82C2084.2 1222.26 2066.28 1261.68 2183.51 1315.94C2195.37 1316.97 2221.92 1316.35 2233.16 1305.7ZM2250.57 1690.67C2191.19 1615.42 2247.5 1534.02 2203.98 1482.83C2160.47 1431.64 2012.53 1362.53 1994.61 1320.55C1969.36 1284.37 1921.51 1201.27 1932.16 1158.27C1945.47 1104.52 1944.95 1082.51 2022.77 1053.33C2085.01 1029.99 2155.86 1041.21 2183.51 1049.75C2219 1056.4 2299.92 1087.53 2339.64 1158.78C2389.3 1247.86 2338.62 1216.63 2375.48 1290.86C2400.9 1324.82 2459.12 1392.83 2488.61 1393.24C2518.09 1393.65 2587.24 1484.19 2618.12 1529.41C2634.68 1550.74 2645.46 1619.72 2556.18 1724.97C2466.9 1830.22 2391 1832.98 2364.21 1821.21L2295.1 1759.78L2250.57 1690.67ZM2257.22 1925.13L2076.52 1710.12C2050.92 1665.24 1998.71 1565.66 1994.61 1526.34C1990.51 1487.03 1948.2 1456.04 1927.55 1445.46C1888.98 1402.8 1815.64 1300.79 1830.8 1234.04C1849.74 1150.59 1846.15 997.018 2018.16 972.958C2155.76 953.709 2289.81 1028.07 2339.64 1067.66C2365.07 1087.97 2419.7 1141.99 2434.86 1195.64C2450.01 1249.29 2543.55 1309.46 2588.43 1332.84C2627 1350.24 2711.7 1413.92 2742.01 1529.41C2779.89 1673.77 2676.99 1778.72 2630.92 1884.68C2584.85 1990.65 2560.79 2021.37 2491.68 2028.02C2422.57 2034.68 2285.38 1970.69 2257.22 1925.13ZM2397.49 673.997C2394.25 673.485 2387.45 675.635 2386.23 688.331C2385 701.026 2400.05 699.422 2407.73 697.033C2413.02 689.355 2418.37 673.997 2397.49 673.997ZM2564.88 806.584C2563.18 816.14 2565.5 834.125 2588.43 829.62C2617.1 823.989 2586.9 799.417 2564.88 806.584ZM2208.59 4021.43C2260.98 4010 2345.48 4005.77 2264.39 4080.3C2222.92 4095.32 2145.83 4110.81 2169.17 4052.66C2176.55 4035.05 2198.52 4024.5 2208.59 4021.43ZM3458.69 2286.03C3469.95 2281.76 3486.54 2255.52 3462.78 2184.67C3447.43 2180.23 3417.84 2160.1 3422.34 2115.05C3426.85 2070 3344.7 2006.86 3303.07 1980.93C3283.27 1971.03 3237.03 1941.71 3210.41 1903.63C3177.14 1856.02 3134.13 1847.31 3124.92 1804.31C3117.55 1769.91 3054.62 1708.41 3024.07 1681.96C3000.52 1657.56 2941.35 1627.19 2893.02 1700.91C2832.62 1793.05 2862.82 1805.85 2853.09 1835.54C2843.37 1865.23 2796.27 1940.48 2853.09 2009.59C2898.55 2064.88 2930.73 2068.12 2941.14 2062.83C2957.52 2068.63 2995.4 2091.91 3015.88 2138.6H3052.74L3076.29 2178.53L3112.63 2182.11C3126.63 2203.44 3156.86 2250.5 3165.87 2268.11H3200.68L3223.21 2307.53H3270.3C3275.08 2327.66 3296.62 2365.07 3344.53 2353.6C3360.91 2356.16 3396.54 2355.04 3408.01 2330.05C3422.34 2298.83 3402.38 2285.52 3426.95 2268.11C3446.61 2254.19 3456.3 2274.25 3458.69 2286.03Z" stroke="#361400" stroke-width="15"/>
</g>
<defs>
<clipPath id="clip0_7_15">
<rect width="4096" height="4096" fill="white"/>
</clipPath>
</defs>
</svg>
